<?xml version="1.0" encoding="UTF-8"?>
<svg id="_レイヤー_1" data-name="レイヤー_1" xmlns="http://www.w3.org/2000/svg" viewBox="0 0 289.7 360.76">
  <defs>
    <style>
      .cls-1 {
        fill: #10222b;
      }
    </style>
  </defs>
  <g>
    <path class="cls-1" d="M145,0c-38.73,0-75.14,15.08-102.53,42.47C15.08,69.86,0,106.27,0,145s15.08,75.14,42.47,102.53c6.89,6.89,14.36,13.01,22.29,18.3-5.02-10.86-8.78-22.42-11.09-34.49-.88-4.59-1.55-9.25-1.99-13.97-.45-4.73-.68-9.51-.68-14.36,0-77.47,58.72-141.21,134.08-149.16,0,0,0,0-.01,0,5.49-1.01,11.15-1.55,16.93-1.55,6.88,0,13.58.76,20.03,2.18,0,0,0,0,0,0,16.53,2.32,32.21,7.34,46.55,14.59-5.89-9.54-12.92-18.47-21.05-26.59C220.14,15.08,183.73,0,145,0Z"/>
    <path class="cls-1" d="M128,216.7c6.96,0,13.63,1.24,19.8,3.51-.42-.31-.85-.61-1.27-.92-2.97-2.22-5.81-4.62-8.49-7.18-1.07-1.02-2.12-2.07-3.15-3.15-.51-.54-1.02-1.08-1.52-1.63-1-1.1-1.97-2.22-2.91-3.36-1.42-1.72-2.77-3.49-4.07-5.3-6.03-8.48-10.67-18.02-13.59-28.29-.83-2.93-1.53-5.93-2.07-8.97-.95-5.33-1.45-10.81-1.45-16.41h0c0-4.8.36-9.51,1.07-14.12.82-5.37,2.1-10.59,3.8-15.62.73-2.15,1.53-4.27,2.41-6.35.59-1.39,1.21-2.76,1.86-4.11.33-.68.66-1.35,1-2.01,1.02-2,2.12-3.96,3.28-5.87,1.55-2.55,3.22-5.02,5-7.4.89-1.19,1.81-2.36,2.75-3.5s1.92-2.27,2.91-3.36c2-2.2,4.09-4.29,6.29-6.29,1.65-1.5,3.35-2.93,5.1-4.31,2.97-2.33,6.09-4.48,9.34-6.45-.14.08-.28.16-.42.25-20.55,7.07-39.39,18.78-55.21,34.6-27.39,27.39-42.47,63.8-42.47,102.53,0,22.37,5.21,44.54,15.09,64.45,3.25-28.56,27.49-50.74,56.91-50.74Z"/>
    <path class="cls-1" d="M282.53,99.05c-2.5-7.5-5.59-14.8-9.29-21.79-6.43-3.7-13.13-6.87-20.02-9.53,0,0,0,0,0,0,0,0,0,0,0,0,2.07,1.37,4.09,2.81,6.03,4.34,1.75,1.38,3.45,2.81,5.1,4.31,2.2,2,4.29,4.09,6.29,6.29,1,1.1,1.97,2.22,2.91,3.36.94,1.14,1.86,2.31,2.75,3.5,1.78,2.38,3.45,4.85,5,7.4.48.79.94,1.59,1.39,2.39-.05-.09-.1-.18-.15-.27Z"/>
    <path class="cls-1" d="M273.53,203.97c-.94,1.14-1.92,2.27-2.91,3.36-.5.55-1,1.09-1.52,1.63-1.02,1.07-2.07,2.12-3.15,3.15-2.68,2.56-5.52,4.96-8.49,7.18-2.38,1.78-4.85,3.45-7.4,5-14.02,8.52-30.47,13.42-48.07,13.42-13.37,0-26.08-2.84-37.56-7.93,12.74,10.51,20.86,26.42,20.86,44.22,0,3.64-.35,7.19-1.01,10.64,23.68-6.62,45.38-19.25,63.24-37.11,16.25-16.25,28.17-35.69,35.18-56.9-1.57,2.77-3.27,5.45-5.11,8.04-1.29,1.82-2.65,3.59-4.07,5.3Z"/>
    <path class="cls-1" d="M226.11,55.47s.07.02.1.03c-.03,0-.07-.02-.1-.03Z"/>
    <path class="cls-1" d="M114.29,145c0,48.36,39.35,87.71,87.71,87.71s87.71-39.35,87.71-87.71-39.35-87.71-87.71-87.71-87.71,39.35-87.71,87.71Z"/>
    <path class="cls-1" d="M75.74,271.91c21.23,11.63,45.22,17.76,69.59,17.76,11.36,0,22.66-1.32,33.62-3.92.89-3.86,1.34-7.8,1.34-11.75,0-28.84-23.46-52.3-52.3-52.3s-51.15,22.33-52.26,50.2Z"/>
  </g>
  <g>
    <path class="cls-1" d="M52,359.92v-42h18.3v2.94l-10.5-1.38c-1.84-.24-3.08-.36-3.72-.36v18.3c.52,0,1.76-.06,3.72-.18l9.84-.6v2.76l-9.84-.6c-1.96-.12-3.2-.18-3.72-.18v20.1c.72,0,1.98-.12,3.78-.36l10.62-1.38v2.94h-18.48Z"/>
    <path class="cls-1" d="M82.18,359.92l1.5-42.84h.72l30.18,36.48h.36l-1.32-35.64h4.08l-1.5,42.84h-.72l-30.18-36.48h-.36l1.32,35.64h-4.08Z"/>
    <path class="cls-1" d="M132.4,359.92v-42h4.08v42h-4.08Z"/>
    <path class="cls-1" d="M148.42,358.6l.36-3.6h.36c1.56,1.36,3.32,2.42,5.28,3.18,1.96.76,3.9,1.14,5.82,1.14,2.72,0,4.92-.75,6.6-2.25,1.68-1.5,2.52-3.51,2.52-6.03,0-1.4-.31-2.7-.93-3.9-.62-1.2-1.64-2.42-3.06-3.66-1.42-1.24-3.37-2.58-5.85-4.02-1.72-1-3.36-2.05-4.92-3.15-1.56-1.1-2.84-2.38-3.84-3.84-1-1.46-1.5-3.21-1.5-5.25,0-3.04,1.1-5.49,3.3-7.35,2.2-1.86,5.1-2.79,8.7-2.79,1.6,0,3.32.17,5.16.51,1.84.34,3.26.77,4.26,1.29l-.3,3.36h-.36c-2.28-2.48-5.2-3.72-8.76-3.72-2.56,0-4.62.65-6.18,1.95-1.56,1.3-2.34,3.05-2.34,5.25,0,1.64.43,3.05,1.29,4.23s1.97,2.24,3.33,3.18c1.36.94,2.82,1.85,4.38,2.73,1.8,1.04,3.55,2.14,5.25,3.3s3.1,2.55,4.2,4.17c1.1,1.62,1.65,3.65,1.65,6.09,0,2.24-.52,4.21-1.56,5.91s-2.51,3.03-4.41,3.99c-1.9.96-4.11,1.44-6.63,1.44-1.6,0-3.48-.2-5.64-.6s-4.22-.92-6.18-1.56Z"/>
    <path class="cls-1" d="M184.66,359.92v-42h4.08v19.44h25.2v-19.44h4.08v42h-4.08v-21.12h-25.2v21.12h-4.08Z"/>
    <path class="cls-1" d="M233.62,359.92v-42h4.08v42h-4.08Z"/>
  </g>
</svg>